<svg xmlns="http://www.w3.org/2000/svg" data-name="Layer 1" viewBox="0 0 5 6.25" x="0px" y="0px"><title>hand_nail_Beauty_Cosmetics_Fingernail_Manicure</title><path d="M1.44918,1.82831a1.36895,1.36895,0,0,0-.23188.26828c-.10543.12664-.23346.332-.40607.36711a.01364.01364,0,0,0-.00311.026c.0717.03392.16489-.04048.21439-.0857.01656-.01513.03229-.0313.04766-.0479-.0326.06834-.06153.13738-.08681.20525a.01763.01763,0,0,0,.03276.013,3.728,3.728,0,0,1,.46737-.712C1.49978,1.841,1.47034,1.80988,1.44918,1.82831Z"/><path d="M2.24269,1.50888c-.109.03113-.21338.07715-.32275.10852a1.832,1.832,0,0,0-.32311.1066.01461.01461,0,0,0,.00762.02783,1.52253,1.52253,0,0,0,.66066-.20428C2.28755,1.53159,2.26552,1.50236,2.24269,1.50888Z"/><path d="M1.24008,1.61341a.67166.67166,0,0,0-.10468.0996,3.52565,3.52565,0,0,0-.84932-.0556.0203.0203,0,0,0-.00475.04029,4.10371,4.10371,0,0,0,.79384.09307c-.0361.05153-.06854.10592-.09951.16017a3.47708,3.47708,0,0,0-.22833.45715c-.006.01537.01688.02966.0262.01471A3.75353,3.75353,0,0,1,1.275,1.65889C1.3009,1.6338,1.27034,1.59068,1.24008,1.61341Z"/><path d="M2.05226,1.49778a2.91021,2.91021,0,0,0-.64018.0858.01585.01585,0,0,0,.00034.03129,2.2926,2.2926,0,0,0,.64031-.07361A.022.022,0,0,0,2.05226,1.49778Z"/><path d="M2.081,2.16228a.76922.76922,0,0,0-.3072.28687c-.10529.14173-.26888.41736-.47477.38077-.019-.00337-.03208.02606-.01459.03633.14339.08419.26618-.04334.36149-.1437.15556-.1638.24821-.41211.451-.52207A.02071.02071,0,0,0,2.081,2.16228Z"/><path d="M4.51944,2.84047c-.201-.01328-.40782-.01183-.61021-.00932-.03556-.03188-.07143-.06318-.106-.09469a1.44928,1.44928,0,0,0-.29347-.21713c-.1238-.06591-.25055-.127-.37631-.18912-.11645-.05749-.23571-.12638-.35849-.174.02434-.00781.049-.01533.07419-.02267A.02583.02583,0,0,0,2.83872,2.083a.80619.80619,0,0,0-.40215.18506c-.102.09052-.28051.36272-.44058.31877a.01936.01936,0,0,0-.0165.03442c.10479.08909.24607-.04836.31878-.119.06666-.06476.12633-.13669.19589-.19849a.66676.66676,0,0,1,.21146-.12352,5.48546,5.48546,0,0,0,.69415.36268,1.45657,1.45657,0,0,1,.3321.21673c.03762.03424.074.07059.11059.10692l.00593.00775.0068.00484a1.49694,1.49694,0,0,0,.20237.17624A.02552.02552,0,0,0,4.093,3.01959,1.0236,1.0236,0,0,0,4.02254,2.939a1.0524,1.0524,0,0,0,.11952.004,1.70483,1.70483,0,0,0,.37817-.03062C4.55753,2.90357,4.56355,2.84338,4.51944,2.84047Z"/><path d="M1.57012,2.18016a2.26658,2.26658,0,0,1-.23418.31623c-.09631.1064-.21585.31459-.38408.26844-.01642-.0045-.03251.01709-.01591.02832.12744.08626.2371-.00835.32582-.10619.018-.01983.0355-.04045.05272-.06149-.0194.03794-.0379.0761-.055.11445-.007.01563.01524.02687.02549.01432a1.82837,1.82837,0,0,0,.259-.45982l.00081-.0086c.01775-.03037.03516-.06072.0519-.09076C1.605,2.18005,1.5794,2.16558,1.57012,2.18016Z"/><path d="M2.63727,1.86014a.7671.7671,0,0,0-.4071.18363,1.45291,1.45291,0,0,0-.10466.21025c-.04811.08874-.11371.16276-.16608.24815-.01045.017.00891.04065.02654.02629a.9053.9053,0,0,0,.21811-.30883.36823.36823,0,0,1,.20133-.217c.0818-.03031.16748-.05058.24807-.08334C2.68519,1.90643,2.67227,1.85228,2.63727,1.86014Z"/><path d="M2.51434,1.63784a3.6389,3.6389,0,0,0-.40045.13872,1.14676,1.14676,0,0,0-.3404.15977.0142.0142,0,0,0,.01407.02425c.24043-.10584.504-.15862.73924-.27728C2.54923,1.672,2.54222,1.631,2.51434,1.63784Z"/><path d="M4.36959,1.96272c-.195.02244-.38794.0513-.58168.083-.157.02572-.41307.12129-.55876.02415-.05212-.05917-.1008-.12435-.16143-.18579a.37419.37419,0,0,0-.16012-.10167l-.00031-.001a.4504.4504,0,0,0-.12613-.12212A.191.191,0,0,0,2.65269,1.602a.01571.01571,0,0,0-.00722.02785.87062.87062,0,0,1,.11637.08038c.02238.01967.045.04376.06987.06343a.23758.23758,0,0,0-.07548.0161c-.01914.00745-.00966.034.009.03292.32937-.019.38523.46374.70995.48094.02951.00156.04563-.044.01353-.05358a.47024.47024,0,0,1-.16134-.08438.81252.81252,0,0,0,.29435-.017c.25277-.04066.50437-.08361.7546-.1377A.02439.02439,0,0,0,4.36959,1.96272Z"/><path d="M2.5817,1.56873A.577.577,0,0,0,2.45126,1.454a.12977.12977,0,0,0-.1151-.00264c-.02117.00722-.01108.03943.01009.03684a.12917.12917,0,0,1,.0686.00127.18263.18263,0,0,1,.04224.03349.6837.6837,0,0,0,.09318.07752C2.57059,1.61289,2.599,1.58977,2.5817,1.56873Z"/><path d="M3.95576,3.48967a2.47785,2.47785,0,0,1-.45155-.06015c-.16319-.04073-.31957-.10125-.48132-.14623-.29763-.08276-.60114-.13679-.89765-.22658a.02153.02153,0,0,0-.01585.04,4.68519,4.68519,0,0,0,.93454.27254c.07919.01937.16015.04642.24219.07412a.646.646,0,0,1-.27206.03929,11.86855,11.86855,0,0,1-1.7767-.30033C1.0745,3.12021.92433,3.02975.7624,2.9656a1.51535,1.51535,0,0,0-.52786-.10148A.01927.01927,0,0,0,.23,2.90238a2.134,2.134,0,0,1,.56247.18037,3.69392,3.69392,0,0,0,.49647.21887,3.68945,3.68945,0,0,0,.46794.09288c.182.03.98981.13462,1.21163.13642a.56656.56656,0,0,0,.39279-.05431l.0066-.00581a1.10824,1.10824,0,0,0,.58844.075C3.98568,3.53912,3.99,3.49186,3.95576,3.48967Z"/><path d="M3.942,3.31334c-.55367-.17472-1.05837-.46646-1.62994-.58729-.01975-.00417-.02688.02682-.00856.03388.27938.10755.56.21057.83515.3287a4.38691,4.38691,0,0,0,.78773.28656C3.96174,3.38284,3.97675,3.3243,3.942,3.31334Z"/><path d="M4.11863,3.18192a5.32339,5.32339,0,0,0-.68651-.38751c-.12093-.05733-.24452-.10917-.36949-.157a.93416.93416,0,0,1-.35424-.194.02461.02461,0,0,0-.039.03,1.32621,1.32621,0,0,0,.6032.33933,8.17457,8.17457,0,0,1,.81075.416C4.11505,3.247,4.15063,3.20344,4.11863,3.18192Z"/><path d="M4.17468,3.35449a.055.055,0,0,0,.051-.06892c-.013-.05735-.07793-.096-.12573-.12243a1.12736,1.12736,0,0,0-.16422-.06943L3.926,3.0916a.0472.0472,0,0,0-.06419.04335c-.00705.07279.0651.13334.11929.16972A.28588.28588,0,0,0,4.17468,3.35449Z"/><path d="M4.09252,3.48521a.055.055,0,0,0,.03305-.07908.22969.22969,0,0,0-.15129-.08892,1.12736,1.12736,0,0,0-.176-.02828l-.00985.00025a.0472.0472,0,0,0-.052.05741c.0105.07237.095.114.15631.13639A.28588.28588,0,0,0,4.09252,3.48521Z"/><path d="M1.30476,2.913A.055.055,0,0,1,1.229,2.87293a.22969.22969,0,0,1,.06035-.16479,1.12736,1.12736,0,0,1,.118-.13368L1.4151,2.5684a.0472.0472,0,0,1,.07663.01129c.03787.06256-.001.14838-.03406.20463A.28588.28588,0,0,1,1.30476,2.913Z"/><path d="M1.97585,2.69334A.04815.04815,0,0,1,1.911,2.6556a.2012.2012,0,0,1,.05863-.14211.98752.98752,0,0,1,.108-.11284l.007-.005a.04135.04135,0,0,1,.06667.01259c.03094.05609-.00608.12984-.037.17791A.25042.25042,0,0,1,1.97585,2.69334Z"/><path d="M1.00791,2.83843A.055.055,0,0,1,.92607,2.813a.22969.22969,0,0,1,.02906-.17307,1.12736,1.12736,0,0,1,.09143-.15307l.00652-.00739a.0472.0472,0,0,1,.0774-.003c.04871.05454.0263.146.0041.20741A.28588.28588,0,0,1,1.00791,2.83843Z"/><path d="M.80146,2.57521a.055.055,0,0,1-.08183-.02547.22969.22969,0,0,1,.02906-.17307A1.12736,1.12736,0,0,1,.84012,2.2236l.00652-.00739a.0472.0472,0,0,1,.0774-.003c.04871.05454.0263.146.0041.20741A.28588.28588,0,0,1,.80146,2.57521Z"/><path d="M3.33624,3.5398A.04617.04617,0,0,0,3.364,3.47339a.19291.19291,0,0,0-.12707-.07468A.94683.94683,0,0,0,3.08908,3.375l-.00828.00021a.03965.03965,0,0,0-.04368.04821c.00882.06078.0798.09573.13128.11455A.2401.2401,0,0,0,3.33624,3.5398Z"/><path d="M4.12882,3.19366a.055.055,0,0,0,.06568-.05506c.00082-.05879-.05327-.11158-.09355-.14848a1.12736,1.12736,0,0,0-.14339-.106l-.00887-.0043a.0472.0472,0,0,0-.07256.02711c-.02391.06911.03205.14488.07621.19295A.28588.28588,0,0,0,4.12882,3.19366Z"/><text x="0" y="20" fill="#000000" font-size="5px" font-weight="bold" font-family="'Helvetica Neue', Helvetica, Arial-Unicode, Arial, Sans-serif">Created by Alice Noir</text><text x="0" y="25" fill="#000000" font-size="5px" font-weight="bold" font-family="'Helvetica Neue', Helvetica, Arial-Unicode, Arial, Sans-serif">from the Noun Project</text></svg>